# AST/ASF file generated using VICON BodyLanguage
# -----------------------------------------------
:version 1.10
:name VICON
:units
  mass 1.0
  length 0.45
  angle deg
:documentation
   .ast/.asf automatically generated from VICON data using
   VICON BodyBuilder and BodyLanguage model FoxedUp or BRILLIANT.MOD
:root
   order TX TY TZ RX RY RZ
   axis XYZ
   position 0 0 0  
   orientation 0 0 0 
:bonedata
  begin
     id 1 
     name lhipjoint
     direction 0.54267 -0.795011 0.271047 
     length 2.39899 
     axis 0 0 0  XYZ
  end
  begin
     id 2 
     name lfemur
     direction 0.34202 -0.939693 0  
     length 7.49701  
     axis 0 0 20  XYZ
    dof rx ry rz
    limits (-160.0 20.0)
           (-70.0 70.0)
           (-60.0 70.0)
  end
  begin
     id 3 
     name ltibia
     direction 0.34202 -0.939693 0   
     length 8.1668   
     axis 0 0 20   XYZ
    dof rx
    limits (-10.0 170.0)
  end
  begin
     id 4 
     name lfoot
     direction 0.0736283 -0.202292 0.976554   
     length 2.13544   
     axis -90 7.62852e-016 20   XYZ
    dof rx rz
    limits (-45.0 90.0)
           (-70.0 20.0)
  end
  begin
     id 5 
     name ltoes
     direction 1.53557e-011 -4.22024e-011 1   
     length 1.07411   
     axis -90 7.62852e-016 20   XYZ
    dof rx
    limits (-90.0 20.0)
  end
  begin
     id 6 
     name rhipjoint
     direction -0.538061 -0.797813 0.272002   
     length 2.39057  
     axis 0 0 0  XYZ 
  end
  begin
     id 7 
     name rfemur
     direction -0.34202 -0.939693 0   
     length 7.50152   
     axis 0 0 -20   XYZ
    dof rx ry rz
    limits (-160.0 20.0)
           (-70.0 70.0)
           (-70.0 60.0)
  end
  begin
     id 8 
     name rtibia
     direction -0.34202 -0.939693 0   
     length 8.05793   
     axis 0 0 -20   XYZ
    dof rx
    limits (-10.0 170.0)
 end
 begin
     id 9 
     name rfoot
     direction -0.0765195 -0.210236 0.974652   
     length 2.28698  
     axis -90 -7.62852e-016 -20   XYZ
    dof rx rz
    limits (-45.0 90.0)
           (-20.0 70.0)
  end
  begin
     id 10 
     name rtoes
     direction -1.53542e-011 -4.21847e-011 1   
     length 1.14762   
     axis -90 -7.62852e-016 -20   XYZ
    dof rx
    limits (-90.0 20.0)
  end
  begin
     id 11 
     name lowerback
     direction -0.0217239 0.996592 -0.0795765   
     length 2.08176   
     axis 0 0 0   XYZ
    dof rx ry rz
    limits (-20.0 45.0)
           (-30.0 30.0)
           (-30.0 30.0)
  end
  begin
     id 12 
     name upperback
     direction -0.00563773 0.999651 -0.0258155   
     length 2.08898   
     axis 0 0 0   XYZ
    dof rx ry rz
    limits (-20.0 45.0)
           (-30.0 30.0)
           (-30.0 30.0)
  end
  begin
     id 13 
     name thorax
     direction 0.0032706 0.999923 0.0119599   
     length 2.0968   
     axis 0 0 0   XYZ
    dof rx ry rz
    limits (-20.0 45.0)
           (-30.0 30.0)
           (-30.0 30.0)
  end
  begin
     id 14 
     name lowerneck
     direction -0.0285886 0.99568 0.0883427   
     length 1.81272   
     axis 0 0 0   XYZ
    dof rx ry rz
    limits (-20.0 45.0)
           (-30.0 30.0)
           (-30.0 30.0)
  end
  begin
     id 15 
     name upperneck
     direction 0.0807535 0.97985 -0.18268   
     length 1.82518   
     axis 0 0 0   XYZ
    dof rx ry rz
    limits (-20.0 45.0)
           (-30.0 30.0)
           (-30.0 30.0)
  end
  begin
     id 16
     name head
     direction 0.0236605 0.997053 -0.0729767  
     length 1.84443  
     axis 0 0 0   XYZ
    dof rx ry rz
    limits (-20.0 45.0)
           (-30.0 30.0)
           (-30.0 30.0)
  end
  begin
     id 17 
     name lclavicle
     direction 0.918986 0.39378 -0.0200683  
     length 3.27822  
     axis 0 0 0   XYZ
    dof ry rz
    limits (-20.0 10.0)
           (0.0 20.0)
  end
  begin
     id 18 
     name lhumerus
     direction 1 -4.4897e-011 2.09544e-027   
     length 5.5568   
     axis 180 -30 -90   XYZ
    dof rx ry rz
    limits (-60.0 90.0)
           (-90.0 90.0)
           (-90.0 90.0)
  end
  begin
     id 19
     name lradius
     direction 1 -4.48957e-011 -1.27696e-026   
     length 3.63979   
     axis 180 -30 -90   XYZ
    dof rx
    limits (-10.0 170.0)
  end
  begin
     id 20
     name lwrist
     direction 1 -4.49001e-011 -1.49001e-026   
     length 1.8199   
     axis 9.0955e-015 90 90   XYZ
    dof ry
    limits (-180.0 0.0)
 end
  begin
     id 21 
     name lhand
     direction 1 -4.48709e-011 -2.9758e-026   
     length 0.569419   
     axis 1.90115e-014 90 90   XYZ
    dof rx rz
    limits (-90.0 90.0)
           (-45.0 45.0)
  end
  begin
     id 22 
     name lfingers
     direction 1 -4.49175e-011 -5.96505e-026   
     length 0.45908   
     axis 3.80223e-014 90 90   XYZ
    dof rx
    limits (0.0 90.0)
  end
  begin
     id 23
     name lthumb
     direction 0.707107 -6.34864e-011 0.707107   
     length 0.65915   
     axis -90 45 -3.84942e-014   XYZ
    dof rx rz
    limits (-45.0 45.0)
           (-45.0 45.0)
  end
  begin
     id 24 
     name rclavicle
     direction -0.911913 0.396426 -0.106115   
     length 3.46301  
     axis 0 0 0   XYZ 
    dof ry rz
    limits (-10.0 20.0)
           (-20.0 0.0)
  end
  begin
     id 25 
     name rhumerus
     direction -1 -4.48965e-011 7.78516e-028  
     length 5.34339   
     axis 180 30 90   XYZ
    dof rx ry rz
    limits (-90.0 60.0)
           (-90.0 90.0)
           (-90.0 90.0)
  end
  begin
     id 26 
     name rradius
     direction -1 -4.48948e-011 -5.79823e-027   
     length 3.65101   
     axis 180 30 90   XYZ
    dof rx
    limits (-10.0 170.0)
  end
  begin
     id 27 
     name rwrist
     direction -1 -4.48995e-011 -1.48996e-026   
     length 1.8255   
     axis 9.0955e-015 -90 -90   XYZ
    dof ry
    limits (-180.0 0.0)
  end
  begin
     id 28
     name rhand
     direction -1 -4.48957e-011 -2.97937e-026   
     length 0.694249   
     axis 1.90115e-014 -90 -90   XYZ
    dof rx rz
    limits (-90.0 90.0)
           (-45.0 45.0)
  end
  begin
     id 29
     name rfingers
     direction -1 -4.4898e-011 -5.95943e-026   
     length 0.559721   
     axis 3.80223e-014 -90 -90   XYZ
    dof rx
    limits (0.0 90.0)
  end
  begin
     id 30
     name rthumb
     direction -0.707107 -6.34969e-011 0.707107   
     length 0.803651   
     axis -90 -45 3.84942e-014   XYZ
    dof rx rz
    limits (-45.0 45.0)
           (-45.0 45.0)
  end
:hierarchy
  begin
    root lhipjoint rhipjoint lowerback
    lhipjoint lfemur
    lfemur ltibia
    ltibia lfoot
    lfoot ltoes
    rhipjoint rfemur
    rfemur rtibia
    rtibia rfoot
    rfoot rtoes
    lowerback upperback
    upperback thorax
    thorax lowerneck lclavicle rclavicle
    lowerneck upperneck
    upperneck head
    lclavicle lhumerus
    lhumerus lradius
    lradius lwrist
    lwrist lhand lthumb
    lhand lfingers
    rclavicle rhumerus
    rhumerus rradius
    rradius rwrist
    rwrist rhand rthumb
    rhand rfingers
  end

#!OML:ASF H:\Terrain\Walking\May29\JustinRory\rory.ASF
:FULLY-SPECIFIED
:DEGREES
17
root 12.3011 18.2226 -18.3435 5.04193 -67.7919 -1.43904
lowerback -4.30483 2.33377 1.90224
upperback 0.232415 2.97194 1.20637
thorax 2.68334 1.49539 0.370434
lowerneck -3.29728 12.1271 8.93331
upperneck 17.1582 17.566 -11.1356
head 7.60067 8.174 -3.51033
rclavicle -4.36581e-014 1.86858e-014
rhumerus -40.9054 -21.8615 -68.1744
rradius 27.7223
rwrist 7.78217
rhand -17.4047 31.4577
rfingers 7.12502
rthumb 8.8448 1.66305
lclavicle -4.36581e-014 1.86858e-014
lhumerus -35.5621 9.73126 79.5555
lradius 28.668
lwrist -3.17775
lhand -25.0536 18.0673
lfingers 7.12502
lthumb 1.45982 48.042
rfemur -2.86199 13.6664 19.9376
rtibia 15.3443
rfoot -8.30118 -23.2091
rtoes 3.08827
lfemur -4.65662 -8.23926 -14.8956
ltibia 20.0229
lfoot -21.0539 13.8412
ltoes -2.06164
18
root 12.2866 18.2161 -18.3244 3.03021 -68.0399 0.58409
lowerback -4.42523 2.36897 1.2511
upperback 0.320238 3.05801 0.979448
thorax 2.82002 1.53243 0.514267
lowerneck -3.1671 12.3068 9.46406
upperneck 17.1336 17.8711 -11.6285
head 7.70153 8.32069 -3.71275
rclavicle 1.44243e-014 -1.35174e-014
rhumerus -40.9589 -21.6516 -68.206
rradius 27.7111
rwrist 7.66012
rhand -17.8201 30.8922
rfingers 7.12502
rthumb 8.44391 1.08104
lclavicle 1.44243e-014 -1.35174e-014
lhumerus -35.7179 9.49786 79.6124
lradius 28.8015
lwrist -2.84646
lhand -25.3634 17.2384
lfingers 7.12502
lthumb 1.16063 47.215
rfemur -2.75369 13.3306 19.0218
rtibia 15.5763
rfoot -8.50029 -22.8238
rtoes 2.12835
lfemur -4.19775 -8.5658 -15.9393
ltibia 19.7983
lfoot -21.3351 14.3409
ltoes -1.95434
19
root 12.2808 18.2148 -18.3155 1.84671 -68.1182 1.72904
lowerback -4.41579 2.36512 0.863975
upperback 0.37559 3.07772 0.869485
thorax 2.85724 1.53798 0.619649
lowerneck -3.04129 12.3752 9.63303
upperneck 17.0697 17.9885 -11.8148
head 7.70632 8.38033 -3.79012
rclavicle 8.64713e-015 1.59028e-015
rhumerus -41.0508 -21.7918 -67.9622
rradius 27.5832
rwrist 8.10977
rhand -17.868 30.4599
rfingers 7.12502
rthumb 8.39775 0.646811
lclavicle 8.64713e-015 1.59028e-015
lhumerus -35.9931 8.88482 79.7171
lradius 29.1377
lwrist -2.32225
lhand -25.222 16.8307
lfingers 7.12502
lthumb 1.29718 46.8065
rfemur -2.67997 13.0606 18.5207
rtibia 15.7722
rfoot -8.84801 -22.5476
rtoes 2.19357
lfemur -3.88165 -8.70761 -16.5163
ltibia 19.6127
lfoot -21.3411 14.5984
ltoes -2.40608
20
root 12.2792 18.2171 -18.3131 1.72124 -68.1271 1.79805
lowerback -4.38656 2.3557 0.845986
upperback 0.419377 3.06639 0.867358
thorax 2.88515 1.5322 0.626648
lowerneck -2.99526 12.3742 9.52464
upperneck 16.9772 17.984 -11.7929
head 7.6548 8.37836 -3.77242
rclavicle -1.02374e-014 2.78299e-015
rhumerus -41.0238 -21.8972 -67.8627
rradius 27.4467
rwrist 8.10995
rhand -17.8049 30.8708
rfingers 7.12502
rthumb 8.45863 1.06022
lclavicle -1.02374e-014 2.78299e-015
lhumerus -35.6673 9.29848 79.7591
lradius 28.7844
lwrist -2.64608
lhand -25.31 17.3902
lfingers 7.12502
lthumb 1.21213 47.3665
rfemur -2.67752 13.0031 18.485
rtibia 15.9464
rfoot -9.27911 -22.3998
rtoes 3.01175
lfemur -3.71247 -8.74204 -16.5604
ltibia 19.4441
lfoot -21.2729 14.6176
ltoes -2.41781
21
root 12.2786 18.2177 -18.313 1.53123 -68.125 1.97864
lowerback -4.34614 2.34187 0.765996
upperback 0.430864 3.05344 0.851161
thorax 2.87099 1.52481 0.65217
lowerneck -2.8957 12.332 9.24514
upperneck 16.8044 17.9033 -11.6325
head 7.52908 8.34523 -3.70079
rclavicle 2.92959e-014 -4.77083e-015
rhumerus -40.8882 -21.3568 -68.3519
rradius 27.544
rwrist 6.57703
rhand -18.6192 30.8053
rfingers 7.12502
rthumb 7.67275 0.964511
lclavicle 2.92959e-014 -4.77083e-015
lhumerus -35.5782 9.4213 79.7703
lradius 28.6894
lwrist -2.81043
lhand -25.5355 17.7342
lfingers 7.12502
lthumb 0.994364 47.7116
rfemur -2.58587 12.9957 18.4141
rtibia 15.808
rfoot -9.17023 -22.3819
rtoes 2.83746
lfemur -3.75535 -8.78539 -16.6348
ltibia 19.5771
lfoot -21.3865 14.5641
ltoes -2.16607
22
root 12.2845 18.2213 -18.3221 2.83852 -68.0401 0.741896
lowerback -4.37864 2.35661 1.17521
upperback 0.36631 3.04578 0.992213
thorax 2.83662 1.52536 0.56798
lowerneck -2.80571 12.2387 8.75652
upperneck 16.6341 17.738 -11.3138
head 7.36256 8.27033 -3.55959
rclavicle 1.8313e-014 -1.19271e-015
rhumerus -40.8635 -21.2396 -68.4306
rradius 27.5702
rwrist 6.27974
rhand -18.5183 30.8168
rfingers 7.12502
rthumb 7.77012 0.979564
lclavicle 1.8313e-014 -1.19271e-015
lhumerus -35.6092 9.2889 79.7788
lradius 28.7469
lwrist -3.04659
lhand -25.5076 18.0283
lfingers 7.12502
lthumb 1.02134 48.0056
rfemur -2.73909 13.2102 18.9515
rtibia 15.6803
rfoot -8.83653 -22.6704
rtoes 2.66068
lfemur -4.07769 -8.62085 -16.0107
ltibia 19.6969
lfoot -21.2837 14.3999
ltoes -2.70327
23
root 12.3007 18.2248 -18.3418 4.98068 -67.7662 -1.31963
lowerback -4.31149 2.35767 1.83694
upperback 0.233224 3.00534 1.25618
thorax 2.68215 1.51067 0.460436
lowerneck -2.89185 12.2168 8.71287
upperneck 16.6857 17.7158 -11.3267
head 7.38917 8.25117 -3.55376
rclavicle -1.16538e-014 1.03368e-014
rhumerus -41.0255 -21.887 -67.7695
rradius 27.4395
rwrist 8.04098
rhand -17.467 31.2063
rfingers 7.12502
rthumb 8.78467 1.40916
lclavicle -1.16538e-014 1.03368e-014
lhumerus -35.7864 8.47803 80.0033
lradius 29.0421
lwrist -2.41834
lhand -25.4719 18.3523
lfingers 7.12502
lthumb 1.0558 48.3295
rfemur -3.02079 13.711 19.8797
rtibia 15.5707
rfoot -8.67626 -23.3166
rtoes 3.00571
lfemur -4.61313 -8.30996 -14.924
ltibia 19.8145
lfoot -21.0524 13.9258
ltoes -2.21985
